<svg xmlns="http://www.w3.org/2000/svg" width="64" height="64" viewBox="0 0 64 64" role="img" aria-label="MyJob">
  <defs>
    <linearGradient id="l" x1="0" y1="0" x2="1" y2="1">
      <stop offset="0" stop-color="#2B66FF" />
      <stop offset="1" stop-color="#1B4FE8" />
    </linearGradient>
    <linearGradient id="r" x1="0" y1="0" x2="1" y2="1">
      <stop offset="0" stop-color="#6DDD3E" />
      <stop offset="1" stop-color="#36B555" />
    </linearGradient>
  </defs>
  <rect x="3" y="3" width="58" height="58" rx="14" fill="#081427" />
  <circle cx="21" cy="16" r="5" fill="url(#l)" />
  <circle cx="43" cy="16" r="5" fill="url(#r)" />
  <path d="M12 46 17 25a4 4 0 0 1 6-2l9 9a4 4 0 0 0 6 0l9-9a4 4 0 0 1 6 2l5 21" fill="none" stroke-linecap="round" stroke-linejoin="round" stroke-width="8" stroke="#0F172A" />
  <path d="M12 46 17 25a4 4 0 0 1 6-2l9 9a4 4 0 0 0 6 0" fill="none" stroke-linecap="round" stroke-linejoin="round" stroke-width="8" stroke="url(#l)" />
  <path d="M38 32 47 23a4 4 0 0 1 6 2l5 21" fill="none" stroke-linecap="round" stroke-linejoin="round" stroke-width="8" stroke="url(#r)" />
</svg>
