<svg xmlns="http://www.w3.org/2000/svg" width="64" height="64" viewBox="0 0 64 64" role="img" aria-label="MyJob">
  <rect x="4" y="4" width="56" height="56" rx="14" fill="#16A34A" />
  <path
    d="M19.5 44V20h4.8l7.7 13.2L39.7 20h4.8v24h-4.7V29.2l-6.3 10.6h-3.1l-6.2-10.6V44h-4.7Z"
    fill="#FFFFFF"
  />
  <path
    d="M46.5 20h4.7v14.2c0 2.4-.6 4.4-1.8 6.1-1.2 1.7-2.8 2.9-4.9 3.6-1.9.7-4.3.9-7.1.7v-4.1c2.2.2 4-.1 5.3-.7 1.2-.6 2.1-1.5 2.8-2.6.6-1.1.9-2.5.9-4.1V20Z"
    fill="#FFFFFF"
    opacity="0.95"
  />
</svg>
