<svg xmlns="http://www.w3.org/2000/svg" width="128" height="128" viewBox="0 0 128 128" role="img" aria-label="MyJob">
  <rect x="8" y="8" width="112" height="112" rx="28" fill="#16A34A" />
  <path
    d="M39 88V40h9.6l15.4 26.4L79.4 40H89v48h-9.4V58.4L67 79.6h-6.2L48.4 58.4V88H39Z"
    fill="#FFFFFF"
  />
  <path
    d="M93 40h9.4v28.4c0 4.8-1.2 8.9-3.6 12.1-2.4 3.3-5.7 5.6-9.8 7.1-3.9 1.4-8.6 1.9-14.1 1.4v-8.2c4.4.3 7.9-.2 10.6-1.4 2.5-1.2 4.3-2.9 5.5-5.2 1.3-2.3 2-5 2-8.2V40Z"
    fill="#FFFFFF"
    opacity="0.95"
  />
</svg>
