<svg xmlns="http://www.w3.org/2000/svg" width="128" height="128" viewBox="0 0 128 128" role="img" aria-label="MyJob">
  <defs>
    <linearGradient id="left" x1="0" y1="0" x2="1" y2="1">
      <stop offset="0" stop-color="#2B66FF" />
      <stop offset="1" stop-color="#1B4FE8" />
    </linearGradient>
    <linearGradient id="right" x1="0" y1="0" x2="1" y2="1">
      <stop offset="0" stop-color="#6DDD3E" />
      <stop offset="1" stop-color="#36B555" />
    </linearGradient>
  </defs>
  <rect x="6" y="6" width="116" height="116" rx="26" fill="#081427" />
  <circle cx="41" cy="32" r="10" fill="url(#left)" />
  <circle cx="87" cy="32" r="10" fill="url(#right)" />
  <path d="M24 87 34 45a8 8 0 0 1 13-4l17 17a8 8 0 0 0 11 0l18-17a8 8 0 0 1 13 4l10 42" fill="none" stroke-linecap="round" stroke-linejoin="round" stroke-width="14" stroke="#0F172A" />
  <path d="M24 87 34 45a8 8 0 0 1 13-4l17 17a8 8 0 0 0 11 0" fill="none" stroke-linecap="round" stroke-linejoin="round" stroke-width="14" stroke="url(#left)" />
  <path d="M75 58 93 41a8 8 0 0 1 13 4l10 42" fill="none" stroke-linecap="round" stroke-linejoin="round" stroke-width="14" stroke="url(#right)" />
</svg>
